<?xml version="1.0" encoding="utf-8"?>
<!-- Generator: Adobe Illustrator 28.1.0, SVG Export Plug-In . SVG Version: 6.00 Build 0)  -->
<svg version="1.1" id="Layer_1" xmlns="http://www.w3.org/2000/svg" xmlns:xlink="http://www.w3.org/1999/xlink" x="0px" y="0px"
	 viewBox="0 0 466.8 319.7" style="enable-background:new 0 0 466.8 319.7;" xml:space="preserve">
<style type="text/css">
	.st0{fill:none;stroke:#FFFFFF;stroke-miterlimit:10;}
	.st1{fill-rule:evenodd;clip-rule:evenodd;fill:#FFFFFF;stroke:#FFFFFF;stroke-miterlimit:10;}
	.st2{fill-rule:evenodd;clip-rule:evenodd;fill:#FFFFFF;}
</style>
<g id="Layer_2_00000031193654447442125450000017533746292356362636_">
	<line class="st0" x1="157.4" y1="163.8" x2="144.6" y2="163.8"/>
	<line class="st0" x1="197.2" y1="163.8" x2="184.4" y2="163.8"/>
	<line class="st0" x1="197.9" y1="136.9" x2="184.4" y2="136.9"/>
	<path class="st1" d="M198.1,136.9h-0.2H198.1z"/>
	<path class="st1" d="M157.4,123.1c0,0.1,0,0.2,0,0.2V123.1L157.4,123.1z"/>
</g>
<g id="Layer_1_00000127753326852491356400000003949621249300187046_">
	<path class="st2" d="M78.4,0.8C64.1,0.8,52,0.8,40,3v262.4c12.1-2.3,24.9-3,38.5-3c55.8,0,108.6,17.4,147,48.3V54.3
		C190,20.4,137.2,0.8,78.4,0.8z M176.5,166.3c-0.4,0-0.7,0-1.1,0h-20.6v20.8c0,0.3,0,0.6,0,0.8c0,12-9.7,21.6-21.6,21.6
		s-21.6-9.7-21.6-21.6c0-0.3,0-0.6,0-0.8l0,0v-20.8H91c-0.4,0-0.8,0-1.1,0c-12,0-21.6-9.7-21.6-21.6S77.9,123,89.9,123
		c0.3,0,0.6,0,0.8,0l0,0h20.8v-21.6c0-0.1,0-0.3,0-0.4c0.2-11.8,9.8-21.3,21.6-21.3s21.6,9.7,21.6,21.6c0,0.4,0,0.7,0,1.1V123h21.7
		c0.1,0,0.3,0,0.4,0c11.8,0.2,21.3,9.8,21.3,21.6S188.4,166.3,176.5,166.3L176.5,166.3z M77.7,277.5c-15.8,0-30.2,1.5-44.5,4.5
		c-2.3,0.8-4.5,0-6-1.5s-3-3.8-3-6V64.8H0v254.9h211.9C176.5,292.6,127.4,277.5,77.7,277.5z M442.6,64.8v209.6c0,2.3-0.8,4.5-3,6
		c-1.5,1.5-3.8,2.3-6,1.5c-14.3-3-28.6-4.5-44.5-4.5c-51.3,0-98.8,15.1-135.7,42.2h213.4V64.8H442.6z M389.1,0
		C331,0.8,276.8,20.4,240.6,54.3v256.4c40-31.7,92-49,148.5-49c13.6,0,25.6,0.8,38.5,3V2.3C415.5,0,403.4,0,389.1,0z M335.2,79.7
		c12,0,21.6,9.7,21.6,21.6s-9.7,21.6-21.6,21.6s-21.6-9.7-21.6-21.6S323.2,79.7,335.2,79.7L335.2,79.7z M291.9,166.3
		c-12,0-21.6-9.7-21.6-21.6s9.7-21.6,21.6-21.6s21.6,9.7,21.6,21.6S303.9,166.3,291.9,166.3z M335.2,209.6c-12,0-21.6-9.7-21.6-21.6
		s9.7-21.6,21.6-21.6s21.6,9.7,21.6,21.6S347.1,209.6,335.2,209.6L335.2,209.6z M378.5,166.3c-12,0-21.6-9.7-21.6-21.6
		s9.7-21.6,21.6-21.6s21.6,9.7,21.6,21.6S390.4,166.3,378.5,166.3L378.5,166.3z"/>
</g>
</svg>
