<?xml version="1.0" encoding="utf-8"?>
<!-- Generator: Adobe Illustrator 28.1.0, SVG Export Plug-In . SVG Version: 6.00 Build 0)  -->
<svg version="1.1" id="Layer_1" xmlns="http://www.w3.org/2000/svg" xmlns:xlink="http://www.w3.org/1999/xlink" x="0px" y="0px"
	 viewBox="0 0 466.8 319.7" style="enable-background:new 0 0 466.8 319.7;" xml:space="preserve">
<style type="text/css">
	.st0{fill:none;stroke:#FFFFFF;stroke-miterlimit:10;}
	.st1{fill-rule:evenodd;clip-rule:evenodd;fill:#FFFFFF;stroke:#FFFFFF;stroke-miterlimit:10;}
	.st2{fill-rule:evenodd;clip-rule:evenodd;fill:#FFFFFF;stroke:#453FFF;stroke-width:10;stroke-miterlimit:10;}
</style>
<g id="Layer_2_00000031193654447442125450000017533746292356362636_">
	<line class="st0" x1="157.4" y1="163.8" x2="144.6" y2="163.8"/>
	<line class="st0" x1="197.2" y1="163.8" x2="184.4" y2="163.8"/>
	<line class="st0" x1="197.9" y1="136.9" x2="184.4" y2="136.9"/>
	<path class="st1" d="M198.1,136.9h-0.2H198.1z"/>
	<path class="st1" d="M157.4,123.1c0,0.1,0,0.2,0,0.2V123.1L157.4,123.1z"/>
</g>
<g id="Layer_1_00000127753326852491356400000003949621249300187046_">
	<path class="st2" d="M84,6.5c-13.8,0-25.5,0-37,2.1v253c11.7-2.2,24-2.9,37.1-2.9c53.8,0,104.7,16.8,141.7,46.6V58.1
		C191.6,25.4,140.7,6.5,84,6.5z M178.5,166.1c-0.4,0-0.7,0-1.1,0h-19.9v20.1c0,0.3,0,0.6,0,0.8c0,11.6-9.4,20.8-20.8,20.8
		c-11.5,0-20.8-9.4-20.8-20.8c0-0.3,0-0.6,0-0.8l0,0v-20.1H96.1c-0.4,0-0.8,0-1.1,0c-11.6,0-20.8-9.4-20.8-20.8s9.3-20.9,20.8-20.9
		c0.3,0,0.6,0,0.8,0l0,0h20.1v-20.8c0-0.1,0-0.3,0-0.4c0.2-11.4,9.4-20.5,20.8-20.5c11.4,0,20.8,9.4,20.8,20.8c0,0.4,0,0.7,0,1.1
		v19.9h20.9c0.1,0,0.3,0,0.4,0c11.4,0.2,20.5,9.4,20.5,20.8S190,166.1,178.5,166.1L178.5,166.1z M83.3,273.3
		c-15.2,0-29.1,1.4-42.9,4.3c-2.2,0.8-4.3,0-5.8-1.4s-2.9-3.7-2.9-5.8V68.2H8.4V314h204.3C178.5,287.8,131.2,273.3,83.3,273.3z
		 M435.1,68.2v202.1c0,2.2-0.8,4.3-2.9,5.8c-1.4,1.4-3.7,2.2-5.8,1.4c-13.8-2.9-27.6-4.3-42.9-4.3c-49.5,0-95.3,14.6-130.8,40.7
		h205.7V68.2H435.1z M383.5,5.7c-56,0.8-108.3,19.7-143.2,52.4v247.2C278.9,274.7,329,258,383.5,258c13.1,0,24.7,0.8,37.1,2.9V8
		C409,5.7,397.3,5.7,383.5,5.7z M331.5,82.6c11.6,0,20.8,9.4,20.8,20.8s-9.4,20.8-20.8,20.8s-20.8-9.4-20.8-20.8
		S320,82.6,331.5,82.6L331.5,82.6z M289.8,166.1c-11.6,0-20.8-9.4-20.8-20.8s9.4-20.8,20.8-20.8s20.8,9.4,20.8,20.8
		S301.4,166.1,289.8,166.1z M331.5,207.8c-11.6,0-20.8-9.4-20.8-20.8s9.4-20.8,20.8-20.8s20.8,9.4,20.8,20.8S343,207.8,331.5,207.8
		L331.5,207.8z M373.3,166.1c-11.6,0-20.8-9.4-20.8-20.8s9.4-20.8,20.8-20.8s20.8,9.4,20.8,20.8S384.8,166.1,373.3,166.1
		L373.3,166.1z"/>
</g>
</svg>
