<?xml version="1.0" encoding="utf-8"?>
<!-- Generator: Adobe Illustrator 28.1.0, SVG Export Plug-In . SVG Version: 6.00 Build 0)  -->
<svg version="1.1" id="Layer_1" xmlns="http://www.w3.org/2000/svg" xmlns:xlink="http://www.w3.org/1999/xlink" x="0px" y="0px"
	 viewBox="0 0 466.8 319.7" style="enable-background:new 0 0 466.8 319.7;" xml:space="preserve">
<style type="text/css">
	.st0{fill:none;stroke:#FFFFFF;stroke-miterlimit:10;}
	.st1{fill-rule:evenodd;clip-rule:evenodd;fill:#FFFFFF;stroke:#FFFFFF;stroke-miterlimit:10;}
	.st2{fill-rule:evenodd;clip-rule:evenodd;fill:#FFFFFF;}
</style>
<g id="Layer_2_00000031193654447442125450000017533746292356362636_">
	<line class="st0" x1="157.4" y1="163.8" x2="144.6" y2="163.8"/>
	<line class="st0" x1="197.2" y1="163.8" x2="184.4" y2="163.8"/>
	<line class="st0" x1="197.9" y1="136.9" x2="184.4" y2="136.9"/>
	<path class="st1" d="M198.1,136.9h-0.2H198.1z"/>
	<path class="st1" d="M157.4,123.1c0,0.1,0,0.2,0,0.2V123.1L157.4,123.1z"/>
</g>
<g id="Layer_1_00000127753326852491356400000003949621249300187046_">
	<path class="st2" d="M81.1,3.5c-14.1,0-26,0-37.7,2.1v258c11.9-2.2,24.5-3,37.8-3c54.9,0,106.8,17.1,144.5,47.5V56.1
		C190.8,22.8,138.9,3.5,81.1,3.5z M177.4,166.2c-0.4,0-0.7,0-1.1,0H156v20.5c0,0.3,0,0.6,0,0.8c0,11.8-9.6,21.2-21.2,21.2
		c-11.7,0-21.2-9.6-21.2-21.2c0-0.3,0-0.6,0-0.8l0,0v-20.5H93.4c-0.4,0-0.8,0-1.1,0c-11.8,0-21.2-9.6-21.2-21.2s9.5-21.3,21.2-21.3
		c0.3,0,0.6,0,0.8,0l0,0h20.5v-21.2c0-0.1,0-0.3,0-0.4c0.2-11.6,9.6-20.9,21.2-20.9s21.2,9.6,21.2,21.2c0,0.4,0,0.7,0,1.1v20.3h21.3
		c0.1,0,0.3,0,0.4,0c11.6,0.2,20.9,9.6,20.9,21.2S189.1,166.2,177.4,166.2L177.4,166.2z M80.3,275.5c-15.5,0-29.7,1.4-43.7,4.4
		c-2.2,0.8-4.4,0-5.9-1.4c-1.5-1.4-3-3.8-3-5.9V66.4H4V317h208.3C177.4,290.3,129.2,275.5,80.3,275.5z M439.1,66.4v206.1
		c0,2.2-0.8,4.4-3,5.9c-1.4,1.4-3.8,2.2-5.9,1.4c-14.1-3-28.1-4.4-43.7-4.4c-50.5,0-97.2,14.9-133.4,41.5h209.8V66.4H439.1z
		 M386.5,2.7c-57.1,0.8-110.4,20.1-146,53.4v252.1c39.4-31.2,90.4-48.2,146-48.2c13.4,0,25.2,0.8,37.8,3V5
		C412.5,2.7,400.5,2.7,386.5,2.7z M333.4,81.1c11.8,0,21.2,9.6,21.2,21.2s-9.6,21.2-21.2,21.2c-11.6,0-21.2-9.6-21.2-21.2
		S321.7,81.1,333.4,81.1L333.4,81.1z M290.9,166.2c-11.8,0-21.2-9.6-21.2-21.2s9.6-21.2,21.2-21.2s21.2,9.6,21.2,21.2
		S302.7,166.2,290.9,166.2z M333.4,208.7c-11.8,0-21.2-9.6-21.2-21.2s9.6-21.2,21.2-21.2c11.6,0,21.2,9.6,21.2,21.2
		S345.2,208.7,333.4,208.7L333.4,208.7z M376.1,166.2c-11.8,0-21.2-9.6-21.2-21.2s9.6-21.2,21.2-21.2c11.6,0,21.2,9.6,21.2,21.2
		S387.8,166.2,376.1,166.2L376.1,166.2z"/>
</g>
</svg>
